<svg xmlns="http://www.w3.org/2000/svg" viewBox="0 0 512 512" role="img" aria-labelledby="title">
  <title>US Translator</title>
  <rect width="512" height="512" rx="112" fill="#102a43"/>
  <path fill="#d64545" d="M0 128h512v48H0zm0 96h512v48H0zm0 96h512v48H0z" opacity=".92"/>
  <circle cx="142" cy="142" r="94" fill="#1f4f8f"/>
  <path fill="#fff" d="m142 72 15 45h47l-38 28 14 45-38-27-38 27 14-45-38-28h47z"/>
  <path fill="#fff" d="M128 296h256v54H128zm0 74h176v54H128z"/>
  <path fill="#f7c948" d="M338 272c37 0 66-29 66-66s-29-66-66-66-66 29-66 66 29 66 66 66zm0-44c-12 0-22-10-22-22s10-22 22-22 22 10 22 22-10 22-22 22z"/>
</svg>
